<?xml version="1.0" standalone="no"?>
<!DOCTYPE svg PUBLIC "-//W3C//DTD SVG 20010904//EN"
 "http://www.w3.org/TR/2001/REC-SVG-20010904/DTD/svg10.dtd">
<svg version="1.0" xmlns="http://www.w3.org/2000/svg"
 width="800.000000pt" height="800.000000pt" viewBox="0 0 800.000000 800.000000"
 preserveAspectRatio="xMidYMid meet">
<metadata>
Created by potrace 1.11, written by Peter Selinger 2001-2013
</metadata>
<g transform="translate(0.000000,800.000000) scale(0.100000,-0.100000)"
fill="#000000" stroke="none">
<path d="M930 3966 l0 -1906 255 0 255 0 0 810 0 811 663 -2 c364 0 691 -5
727 -10 129 -18 262 -104 338 -219 73 -108 135 -354 157 -615 3 -38 8 -90 10
-115 2 -25 7 -99 10 -165 14 -308 51 -476 108 -487 18 -3 415 -3 520 1 l29 1
-21 32 c-79 120 -137 310 -155 513 -3 33 -8 76 -11 95 -2 19 -7 76 -10 125
-25 399 -54 568 -124 710 -84 169 -207 274 -386 331 l-70 22 50 21 c143 62
235 115 297 171 193 174 296 428 302 744 6 310 -74 533 -258 719 -134 134
-285 216 -503 271 -54 14 -136 27 -183 30 -47 3 -516 8 -1042 11 l-958 6 0
-1905z m2004 1445 c222 -60 363 -207 413 -431 23 -102 23 -303 0 -390 -28
-106 -72 -185 -146 -259 -76 -76 -124 -108 -226 -147 -145 -55 -167 -56 -877
-61 l-658 -5 0 662 0 662 708 -5 c685 -4 709 -5 786 -26z"/>
<path d="M4580 3965 l0 -1905 255 0 255 0 0 870 0 870 875 0 875 0 0 215 0
215 -875 0 -875 0 0 605 0 605 1000 0 1000 0 0 215 0 215 -1255 0 -1255 0 0
-1905z"/>
</g>
</svg>
